<mxfile host="app.diagrams.net" agent="Mozilla/5.0 (Windows NT 10.0; Win64; x64) AppleWebKit/537.36 (KHTML, like Gecko) Chrome/132.0.0.0 Safari/537.36" version="26.0.10" pages="3">
  <diagram name="Страница — 1" id="SlsfxkLhZ83eddNwCgyz">
    <mxGraphModel dx="1290" dy="522" grid="1" gridSize="10" guides="1" tooltips="1" connect="1" arrows="1" fold="1" page="1" pageScale="1" pageWidth="1200" pageHeight="1600" math="0" shadow="0">
      <root>
        <mxCell id="0" />
        <mxCell id="1" parent="0" />
        <mxCell id="U1XYEcbWwrDaBiq8j8Jq-3" value="" style="edgeStyle=orthogonalEdgeStyle;rounded=0;orthogonalLoop=1;jettySize=auto;html=1;" parent="1" source="U1XYEcbWwrDaBiq8j8Jq-1" target="U1XYEcbWwrDaBiq8j8Jq-2" edge="1">
          <mxGeometry relative="1" as="geometry" />
        </mxCell>
        <mxCell id="U1XYEcbWwrDaBiq8j8Jq-1" value="начало dvizh" style="ellipse;whiteSpace=wrap;html=1;" parent="1" vertex="1">
          <mxGeometry x="160" y="40" width="120" height="80" as="geometry" />
        </mxCell>
        <mxCell id="U1XYEcbWwrDaBiq8j8Jq-7" value="" style="edgeStyle=orthogonalEdgeStyle;rounded=0;orthogonalLoop=1;jettySize=auto;html=1;" parent="1" source="U1XYEcbWwrDaBiq8j8Jq-2" target="U1XYEcbWwrDaBiq8j8Jq-6" edge="1">
          <mxGeometry relative="1" as="geometry" />
        </mxCell>
        <mxCell id="U1XYEcbWwrDaBiq8j8Jq-2" value="Инициализация a" style="shape=parallelogram;perimeter=parallelogramPerimeter;whiteSpace=wrap;html=1;fixedSize=1;" parent="1" vertex="1">
          <mxGeometry x="160" y="160" width="120" height="80" as="geometry" />
        </mxCell>
        <mxCell id="U1XYEcbWwrDaBiq8j8Jq-4" value="" style="endArrow=none;html=1;rounded=0;exitX=1;exitY=0.5;exitDx=0;exitDy=0;" parent="1" source="U1XYEcbWwrDaBiq8j8Jq-2" target="U1XYEcbWwrDaBiq8j8Jq-5" edge="1">
          <mxGeometry width="50" height="50" relative="1" as="geometry">
            <mxPoint x="220" y="100" as="sourcePoint" />
            <mxPoint x="350" y="200" as="targetPoint" />
          </mxGeometry>
        </mxCell>
        <mxCell id="U1XYEcbWwrDaBiq8j8Jq-5" value="По значению&lt;div&gt;&lt;br&gt;&lt;/div&gt;" style="strokeWidth=2;html=1;shape=mxgraph.flowchart.annotation_1;align=left;pointerEvents=1;" parent="1" vertex="1">
          <mxGeometry x="325" y="160" width="50" height="80" as="geometry" />
        </mxCell>
        <mxCell id="U1XYEcbWwrDaBiq8j8Jq-12" style="edgeStyle=orthogonalEdgeStyle;rounded=0;orthogonalLoop=1;jettySize=auto;html=1;entryX=0;entryY=0.5;entryDx=0;entryDy=0;" parent="1" source="U1XYEcbWwrDaBiq8j8Jq-6" target="U1XYEcbWwrDaBiq8j8Jq-8" edge="1">
          <mxGeometry relative="1" as="geometry">
            <Array as="points">
              <mxPoint x="220" y="440" />
            </Array>
          </mxGeometry>
        </mxCell>
        <mxCell id="U1XYEcbWwrDaBiq8j8Jq-17" value="VK_Up" style="edgeLabel;html=1;align=center;verticalAlign=middle;resizable=0;points=[];" parent="U1XYEcbWwrDaBiq8j8Jq-12" vertex="1" connectable="0">
          <mxGeometry x="0.4667" y="1" relative="1" as="geometry">
            <mxPoint as="offset" />
          </mxGeometry>
        </mxCell>
        <mxCell id="U1XYEcbWwrDaBiq8j8Jq-6" value="a?" style="rhombus;whiteSpace=wrap;html=1;" parent="1" vertex="1">
          <mxGeometry x="160" y="280" width="120" height="80" as="geometry" />
        </mxCell>
        <mxCell id="U1XYEcbWwrDaBiq8j8Jq-8" value="&lt;div&gt;ya:=ya-5;&lt;/div&gt;&lt;div&gt;&amp;nbsp;yb:=yb-5;&lt;/div&gt;" style="rounded=0;whiteSpace=wrap;html=1;" parent="1" vertex="1">
          <mxGeometry x="320" y="400" width="120" height="80" as="geometry" />
        </mxCell>
        <mxCell id="U1XYEcbWwrDaBiq8j8Jq-9" value="&lt;div&gt;ya:=ya+5;&lt;/div&gt;&lt;div&gt;&amp;nbsp;yb:=yb+5;&lt;/div&gt;" style="rounded=0;whiteSpace=wrap;html=1;" parent="1" vertex="1">
          <mxGeometry x="320" y="520" width="120" height="80" as="geometry" />
        </mxCell>
        <mxCell id="U1XYEcbWwrDaBiq8j8Jq-23" style="edgeStyle=orthogonalEdgeStyle;rounded=0;orthogonalLoop=1;jettySize=auto;html=1;entryX=0.5;entryY=0;entryDx=0;entryDy=0;" parent="1" source="U1XYEcbWwrDaBiq8j8Jq-10" target="U1XYEcbWwrDaBiq8j8Jq-21" edge="1">
          <mxGeometry relative="1" as="geometry">
            <mxPoint x="490" y="880" as="targetPoint" />
            <Array as="points">
              <mxPoint x="490" y="680" />
              <mxPoint x="490" y="880" />
              <mxPoint x="220" y="880" />
            </Array>
          </mxGeometry>
        </mxCell>
        <mxCell id="U1XYEcbWwrDaBiq8j8Jq-10" value="&lt;div&gt;xa:=xa-5;&lt;/div&gt;&lt;div&gt;&amp;nbsp;xb:=xb-5;&lt;/div&gt;" style="rounded=0;whiteSpace=wrap;html=1;" parent="1" vertex="1">
          <mxGeometry x="320" y="640" width="120" height="80" as="geometry" />
        </mxCell>
        <mxCell id="U1XYEcbWwrDaBiq8j8Jq-22" style="edgeStyle=orthogonalEdgeStyle;rounded=0;orthogonalLoop=1;jettySize=auto;html=1;entryX=0.5;entryY=0;entryDx=0;entryDy=0;" parent="1" source="U1XYEcbWwrDaBiq8j8Jq-11" target="U1XYEcbWwrDaBiq8j8Jq-21" edge="1">
          <mxGeometry relative="1" as="geometry">
            <mxPoint x="560" y="880" as="targetPoint" />
            <Array as="points">
              <mxPoint x="490" y="800" />
              <mxPoint x="490" y="880" />
              <mxPoint x="220" y="880" />
            </Array>
          </mxGeometry>
        </mxCell>
        <mxCell id="U1XYEcbWwrDaBiq8j8Jq-11" value="&lt;div&gt;xa:=xa+5;&lt;/div&gt;&lt;div&gt;xb:=xb+5;&lt;/div&gt;" style="rounded=0;whiteSpace=wrap;html=1;" parent="1" vertex="1">
          <mxGeometry x="320" y="760" width="120" height="80" as="geometry" />
        </mxCell>
        <mxCell id="U1XYEcbWwrDaBiq8j8Jq-13" value="" style="endArrow=classic;html=1;rounded=0;entryX=0;entryY=0.5;entryDx=0;entryDy=0;" parent="1" target="U1XYEcbWwrDaBiq8j8Jq-9" edge="1">
          <mxGeometry width="50" height="50" relative="1" as="geometry">
            <mxPoint x="220" y="440" as="sourcePoint" />
            <mxPoint x="270" y="570" as="targetPoint" />
            <Array as="points">
              <mxPoint x="220" y="560" />
            </Array>
          </mxGeometry>
        </mxCell>
        <mxCell id="U1XYEcbWwrDaBiq8j8Jq-18" value="VK_Down" style="edgeLabel;html=1;align=center;verticalAlign=middle;resizable=0;points=[];" parent="U1XYEcbWwrDaBiq8j8Jq-13" vertex="1" connectable="0">
          <mxGeometry x="0.5182" y="1" relative="1" as="geometry">
            <mxPoint as="offset" />
          </mxGeometry>
        </mxCell>
        <mxCell id="U1XYEcbWwrDaBiq8j8Jq-15" value="" style="endArrow=classic;html=1;rounded=0;entryX=0;entryY=0.5;entryDx=0;entryDy=0;" parent="1" target="U1XYEcbWwrDaBiq8j8Jq-10" edge="1">
          <mxGeometry width="50" height="50" relative="1" as="geometry">
            <mxPoint x="220" y="560" as="sourcePoint" />
            <mxPoint x="200" y="620" as="targetPoint" />
            <Array as="points">
              <mxPoint x="220" y="680" />
            </Array>
          </mxGeometry>
        </mxCell>
        <mxCell id="U1XYEcbWwrDaBiq8j8Jq-19" value="VK_Left" style="edgeLabel;html=1;align=center;verticalAlign=middle;resizable=0;points=[];" parent="U1XYEcbWwrDaBiq8j8Jq-15" vertex="1" connectable="0">
          <mxGeometry x="0.3909" relative="1" as="geometry">
            <mxPoint as="offset" />
          </mxGeometry>
        </mxCell>
        <mxCell id="U1XYEcbWwrDaBiq8j8Jq-16" value="" style="endArrow=classic;html=1;rounded=0;entryX=0;entryY=0.5;entryDx=0;entryDy=0;" parent="1" target="U1XYEcbWwrDaBiq8j8Jq-11" edge="1">
          <mxGeometry width="50" height="50" relative="1" as="geometry">
            <mxPoint x="220" y="680" as="sourcePoint" />
            <mxPoint x="230" y="740" as="targetPoint" />
            <Array as="points">
              <mxPoint x="220" y="800" />
            </Array>
          </mxGeometry>
        </mxCell>
        <mxCell id="U1XYEcbWwrDaBiq8j8Jq-20" value="VK_Right" style="edgeLabel;html=1;align=center;verticalAlign=middle;resizable=0;points=[];" parent="U1XYEcbWwrDaBiq8j8Jq-16" vertex="1" connectable="0">
          <mxGeometry x="0.5545" y="1" relative="1" as="geometry">
            <mxPoint as="offset" />
          </mxGeometry>
        </mxCell>
        <mxCell id="U1XYEcbWwrDaBiq8j8Jq-55" value="" style="edgeStyle=orthogonalEdgeStyle;rounded=0;orthogonalLoop=1;jettySize=auto;html=1;" parent="1" source="U1XYEcbWwrDaBiq8j8Jq-21" target="U1XYEcbWwrDaBiq8j8Jq-54" edge="1">
          <mxGeometry relative="1" as="geometry" />
        </mxCell>
        <mxCell id="U1XYEcbWwrDaBiq8j8Jq-21" value="Window.Clear" style="shape=parallelogram;perimeter=parallelogramPerimeter;whiteSpace=wrap;html=1;fixedSize=1;" parent="1" vertex="1">
          <mxGeometry x="160" y="900" width="120" height="60" as="geometry" />
        </mxCell>
        <mxCell id="U1XYEcbWwrDaBiq8j8Jq-28" value="" style="endArrow=classic;html=1;rounded=0;exitX=1;exitY=0.5;exitDx=0;exitDy=0;entryX=0.5;entryY=0;entryDx=0;entryDy=0;" parent="1" source="U1XYEcbWwrDaBiq8j8Jq-8" target="U1XYEcbWwrDaBiq8j8Jq-21" edge="1">
          <mxGeometry width="50" height="50" relative="1" as="geometry">
            <mxPoint x="600" y="740" as="sourcePoint" />
            <mxPoint x="650" y="690" as="targetPoint" />
            <Array as="points">
              <mxPoint x="490" y="440" />
              <mxPoint x="490" y="560" />
              <mxPoint x="490" y="680" />
              <mxPoint x="490" y="880" />
              <mxPoint x="220" y="880" />
            </Array>
          </mxGeometry>
        </mxCell>
        <mxCell id="U1XYEcbWwrDaBiq8j8Jq-29" value="" style="endArrow=classic;html=1;rounded=0;exitX=1;exitY=0.5;exitDx=0;exitDy=0;entryX=0.5;entryY=0;entryDx=0;entryDy=0;" parent="1" source="U1XYEcbWwrDaBiq8j8Jq-9" target="U1XYEcbWwrDaBiq8j8Jq-21" edge="1">
          <mxGeometry width="50" height="50" relative="1" as="geometry">
            <mxPoint x="600" y="550" as="sourcePoint" />
            <mxPoint x="650" y="500" as="targetPoint" />
            <Array as="points">
              <mxPoint x="490" y="560" />
              <mxPoint x="490" y="880" />
              <mxPoint x="220" y="880" />
            </Array>
          </mxGeometry>
        </mxCell>
        <mxCell id="U1XYEcbWwrDaBiq8j8Jq-30" value="" style="edgeStyle=orthogonalEdgeStyle;rounded=0;orthogonalLoop=1;jettySize=auto;html=1;" parent="1" source="U1XYEcbWwrDaBiq8j8Jq-31" target="U1XYEcbWwrDaBiq8j8Jq-33" edge="1">
          <mxGeometry relative="1" as="geometry" />
        </mxCell>
        <mxCell id="U1XYEcbWwrDaBiq8j8Jq-31" value="начало glub" style="ellipse;whiteSpace=wrap;html=1;" parent="1" vertex="1">
          <mxGeometry x="850" y="60" width="120" height="80" as="geometry" />
        </mxCell>
        <mxCell id="U1XYEcbWwrDaBiq8j8Jq-32" value="" style="edgeStyle=orthogonalEdgeStyle;rounded=0;orthogonalLoop=1;jettySize=auto;html=1;" parent="1" source="U1XYEcbWwrDaBiq8j8Jq-33" target="U1XYEcbWwrDaBiq8j8Jq-38" edge="1">
          <mxGeometry relative="1" as="geometry" />
        </mxCell>
        <mxCell id="U1XYEcbWwrDaBiq8j8Jq-33" value="Инициализация b" style="shape=parallelogram;perimeter=parallelogramPerimeter;whiteSpace=wrap;html=1;fixedSize=1;" parent="1" vertex="1">
          <mxGeometry x="850" y="180" width="120" height="80" as="geometry" />
        </mxCell>
        <mxCell id="U1XYEcbWwrDaBiq8j8Jq-34" value="" style="endArrow=none;html=1;rounded=0;exitX=1;exitY=0.5;exitDx=0;exitDy=0;" parent="1" source="U1XYEcbWwrDaBiq8j8Jq-33" target="U1XYEcbWwrDaBiq8j8Jq-35" edge="1">
          <mxGeometry width="50" height="50" relative="1" as="geometry">
            <mxPoint x="910" y="120" as="sourcePoint" />
            <mxPoint x="1040" y="220" as="targetPoint" />
          </mxGeometry>
        </mxCell>
        <mxCell id="U1XYEcbWwrDaBiq8j8Jq-35" value="По значению&lt;div&gt;&lt;br&gt;&lt;/div&gt;" style="strokeWidth=2;html=1;shape=mxgraph.flowchart.annotation_1;align=left;pointerEvents=1;" parent="1" vertex="1">
          <mxGeometry x="1015" y="180" width="50" height="80" as="geometry" />
        </mxCell>
        <mxCell id="U1XYEcbWwrDaBiq8j8Jq-36" style="edgeStyle=orthogonalEdgeStyle;rounded=0;orthogonalLoop=1;jettySize=auto;html=1;entryX=0;entryY=0.5;entryDx=0;entryDy=0;" parent="1" source="U1XYEcbWwrDaBiq8j8Jq-38" target="U1XYEcbWwrDaBiq8j8Jq-39" edge="1">
          <mxGeometry relative="1" as="geometry">
            <Array as="points">
              <mxPoint x="910" y="460" />
            </Array>
          </mxGeometry>
        </mxCell>
        <mxCell id="U1XYEcbWwrDaBiq8j8Jq-37" value="VK_w" style="edgeLabel;html=1;align=center;verticalAlign=middle;resizable=0;points=[];" parent="U1XYEcbWwrDaBiq8j8Jq-36" vertex="1" connectable="0">
          <mxGeometry x="0.4667" y="1" relative="1" as="geometry">
            <mxPoint as="offset" />
          </mxGeometry>
        </mxCell>
        <mxCell id="U1XYEcbWwrDaBiq8j8Jq-38" value="b?" style="rhombus;whiteSpace=wrap;html=1;" parent="1" vertex="1">
          <mxGeometry x="850" y="300" width="120" height="80" as="geometry" />
        </mxCell>
        <mxCell id="U1XYEcbWwrDaBiq8j8Jq-39" value="&lt;div&gt;ya:=ya-5;&lt;/div&gt;&lt;div&gt;&amp;nbsp;yb:=yb-5;&lt;/div&gt;" style="rounded=0;whiteSpace=wrap;html=1;" parent="1" vertex="1">
          <mxGeometry x="1010" y="420" width="120" height="80" as="geometry" />
        </mxCell>
        <mxCell id="U1XYEcbWwrDaBiq8j8Jq-40" value="&lt;div&gt;ya:=ya+5;&lt;/div&gt;&lt;div&gt;&amp;nbsp;yb:=yb+5;&lt;/div&gt;" style="rounded=0;whiteSpace=wrap;html=1;" parent="1" vertex="1">
          <mxGeometry x="1010" y="540" width="120" height="80" as="geometry" />
        </mxCell>
        <mxCell id="U1XYEcbWwrDaBiq8j8Jq-45" value="" style="endArrow=classic;html=1;rounded=0;entryX=0;entryY=0.5;entryDx=0;entryDy=0;" parent="1" target="U1XYEcbWwrDaBiq8j8Jq-40" edge="1">
          <mxGeometry width="50" height="50" relative="1" as="geometry">
            <mxPoint x="910" y="460" as="sourcePoint" />
            <mxPoint x="960" y="590" as="targetPoint" />
            <Array as="points">
              <mxPoint x="910" y="580" />
            </Array>
          </mxGeometry>
        </mxCell>
        <mxCell id="U1XYEcbWwrDaBiq8j8Jq-46" value="VK_s" style="edgeLabel;html=1;align=center;verticalAlign=middle;resizable=0;points=[];" parent="U1XYEcbWwrDaBiq8j8Jq-45" vertex="1" connectable="0">
          <mxGeometry x="0.5182" y="1" relative="1" as="geometry">
            <mxPoint as="offset" />
          </mxGeometry>
        </mxCell>
        <mxCell id="U1XYEcbWwrDaBiq8j8Jq-57" value="" style="edgeStyle=orthogonalEdgeStyle;rounded=0;orthogonalLoop=1;jettySize=auto;html=1;" parent="1" source="U1XYEcbWwrDaBiq8j8Jq-51" target="U1XYEcbWwrDaBiq8j8Jq-56" edge="1">
          <mxGeometry relative="1" as="geometry" />
        </mxCell>
        <mxCell id="U1XYEcbWwrDaBiq8j8Jq-51" value="Window.Clear" style="shape=parallelogram;perimeter=parallelogramPerimeter;whiteSpace=wrap;html=1;fixedSize=1;" parent="1" vertex="1">
          <mxGeometry x="850" y="680" width="120" height="60" as="geometry" />
        </mxCell>
        <mxCell id="U1XYEcbWwrDaBiq8j8Jq-52" value="" style="endArrow=classic;html=1;rounded=0;exitX=1;exitY=0.5;exitDx=0;exitDy=0;entryX=0.5;entryY=0;entryDx=0;entryDy=0;" parent="1" source="U1XYEcbWwrDaBiq8j8Jq-39" target="U1XYEcbWwrDaBiq8j8Jq-51" edge="1">
          <mxGeometry width="50" height="50" relative="1" as="geometry">
            <mxPoint x="1290" y="760" as="sourcePoint" />
            <mxPoint x="1340" y="710" as="targetPoint" />
            <Array as="points">
              <mxPoint x="1180" y="460" />
              <mxPoint x="1180" y="580" />
              <mxPoint x="1180" y="640" />
              <mxPoint x="910" y="640" />
            </Array>
          </mxGeometry>
        </mxCell>
        <mxCell id="U1XYEcbWwrDaBiq8j8Jq-53" value="" style="endArrow=classic;html=1;rounded=0;exitX=1;exitY=0.5;exitDx=0;exitDy=0;entryX=0.5;entryY=0;entryDx=0;entryDy=0;" parent="1" source="U1XYEcbWwrDaBiq8j8Jq-40" target="U1XYEcbWwrDaBiq8j8Jq-51" edge="1">
          <mxGeometry width="50" height="50" relative="1" as="geometry">
            <mxPoint x="1290" y="570" as="sourcePoint" />
            <mxPoint x="1340" y="520" as="targetPoint" />
            <Array as="points">
              <mxPoint x="1180" y="580" />
              <mxPoint x="1180" y="640" />
              <mxPoint x="1120" y="640" />
              <mxPoint x="1040" y="640" />
              <mxPoint x="910" y="640" />
            </Array>
          </mxGeometry>
        </mxCell>
        <mxCell id="U1XYEcbWwrDaBiq8j8Jq-54" value="Конец dvizh" style="ellipse;whiteSpace=wrap;html=1;" parent="1" vertex="1">
          <mxGeometry x="160" y="1000" width="120" height="80" as="geometry" />
        </mxCell>
        <mxCell id="U1XYEcbWwrDaBiq8j8Jq-56" value="Конtц glub" style="ellipse;whiteSpace=wrap;html=1;" parent="1" vertex="1">
          <mxGeometry x="850" y="770" width="120" height="80" as="geometry" />
        </mxCell>
        <mxCell id="U1XYEcbWwrDaBiq8j8Jq-58" value="" style="edgeStyle=orthogonalEdgeStyle;rounded=0;orthogonalLoop=1;jettySize=auto;html=1;" parent="1" source="U1XYEcbWwrDaBiq8j8Jq-59" target="U1XYEcbWwrDaBiq8j8Jq-61" edge="1">
          <mxGeometry relative="1" as="geometry" />
        </mxCell>
        <mxCell id="U1XYEcbWwrDaBiq8j8Jq-59" value="начало maschtab" style="ellipse;whiteSpace=wrap;html=1;" parent="1" vertex="1">
          <mxGeometry x="620" y="770" width="120" height="80" as="geometry" />
        </mxCell>
        <mxCell id="U1XYEcbWwrDaBiq8j8Jq-60" value="" style="edgeStyle=orthogonalEdgeStyle;rounded=0;orthogonalLoop=1;jettySize=auto;html=1;" parent="1" source="U1XYEcbWwrDaBiq8j8Jq-61" target="U1XYEcbWwrDaBiq8j8Jq-66" edge="1">
          <mxGeometry relative="1" as="geometry" />
        </mxCell>
        <mxCell id="U1XYEcbWwrDaBiq8j8Jq-61" value="Инициализация c" style="shape=parallelogram;perimeter=parallelogramPerimeter;whiteSpace=wrap;html=1;fixedSize=1;" parent="1" vertex="1">
          <mxGeometry x="620" y="890" width="120" height="80" as="geometry" />
        </mxCell>
        <mxCell id="U1XYEcbWwrDaBiq8j8Jq-62" value="" style="endArrow=none;html=1;rounded=0;exitX=1;exitY=0.5;exitDx=0;exitDy=0;" parent="1" source="U1XYEcbWwrDaBiq8j8Jq-61" target="U1XYEcbWwrDaBiq8j8Jq-63" edge="1">
          <mxGeometry width="50" height="50" relative="1" as="geometry">
            <mxPoint x="680" y="830" as="sourcePoint" />
            <mxPoint x="810" y="930" as="targetPoint" />
          </mxGeometry>
        </mxCell>
        <mxCell id="U1XYEcbWwrDaBiq8j8Jq-63" value="По значению&lt;div&gt;&lt;br&gt;&lt;/div&gt;" style="strokeWidth=2;html=1;shape=mxgraph.flowchart.annotation_1;align=left;pointerEvents=1;" parent="1" vertex="1">
          <mxGeometry x="785" y="890" width="50" height="80" as="geometry" />
        </mxCell>
        <mxCell id="U1XYEcbWwrDaBiq8j8Jq-64" style="edgeStyle=orthogonalEdgeStyle;rounded=0;orthogonalLoop=1;jettySize=auto;html=1;entryX=0;entryY=0.5;entryDx=0;entryDy=0;" parent="1" source="U1XYEcbWwrDaBiq8j8Jq-66" target="U1XYEcbWwrDaBiq8j8Jq-67" edge="1">
          <mxGeometry relative="1" as="geometry">
            <Array as="points">
              <mxPoint x="680" y="1170" />
            </Array>
          </mxGeometry>
        </mxCell>
        <mxCell id="U1XYEcbWwrDaBiq8j8Jq-65" value="VK_Up" style="edgeLabel;html=1;align=center;verticalAlign=middle;resizable=0;points=[];" parent="U1XYEcbWwrDaBiq8j8Jq-64" vertex="1" connectable="0">
          <mxGeometry x="0.4667" y="1" relative="1" as="geometry">
            <mxPoint as="offset" />
          </mxGeometry>
        </mxCell>
        <mxCell id="U1XYEcbWwrDaBiq8j8Jq-66" value="c?" style="rhombus;whiteSpace=wrap;html=1;" parent="1" vertex="1">
          <mxGeometry x="620" y="1010" width="120" height="80" as="geometry" />
        </mxCell>
        <mxCell id="U1XYEcbWwrDaBiq8j8Jq-67" value="&lt;div&gt;ya:=ya-5;&lt;/div&gt;&lt;div&gt;&amp;nbsp;yb:=yb-5;&lt;/div&gt;" style="rounded=0;whiteSpace=wrap;html=1;" parent="1" vertex="1">
          <mxGeometry x="780" y="1130" width="120" height="80" as="geometry" />
        </mxCell>
        <mxCell id="U1XYEcbWwrDaBiq8j8Jq-68" value="&lt;div&gt;ya:=ya+5;&lt;/div&gt;&lt;div&gt;&amp;nbsp;yb:=yb+5;&lt;/div&gt;" style="rounded=0;whiteSpace=wrap;html=1;" parent="1" vertex="1">
          <mxGeometry x="780" y="1230" width="120" height="80" as="geometry" />
        </mxCell>
        <mxCell id="U1XYEcbWwrDaBiq8j8Jq-73" value="" style="endArrow=classic;html=1;rounded=0;entryX=0;entryY=0.5;entryDx=0;entryDy=0;" parent="1" target="U1XYEcbWwrDaBiq8j8Jq-68" edge="1">
          <mxGeometry width="50" height="50" relative="1" as="geometry">
            <mxPoint x="680" y="1170" as="sourcePoint" />
            <mxPoint x="730" y="1300" as="targetPoint" />
            <Array as="points">
              <mxPoint x="680" y="1270" />
            </Array>
          </mxGeometry>
        </mxCell>
        <mxCell id="U1XYEcbWwrDaBiq8j8Jq-74" value="VK_Down" style="edgeLabel;html=1;align=center;verticalAlign=middle;resizable=0;points=[];" parent="U1XYEcbWwrDaBiq8j8Jq-73" vertex="1" connectable="0">
          <mxGeometry x="0.5182" y="1" relative="1" as="geometry">
            <mxPoint as="offset" />
          </mxGeometry>
        </mxCell>
        <mxCell id="U1XYEcbWwrDaBiq8j8Jq-83" value="" style="edgeStyle=orthogonalEdgeStyle;rounded=0;orthogonalLoop=1;jettySize=auto;html=1;" parent="1" source="U1XYEcbWwrDaBiq8j8Jq-79" target="U1XYEcbWwrDaBiq8j8Jq-82" edge="1">
          <mxGeometry relative="1" as="geometry" />
        </mxCell>
        <mxCell id="U1XYEcbWwrDaBiq8j8Jq-79" value="Window.Clear" style="shape=parallelogram;perimeter=parallelogramPerimeter;whiteSpace=wrap;html=1;fixedSize=1;" parent="1" vertex="1">
          <mxGeometry x="620" y="1380" width="120" height="60" as="geometry" />
        </mxCell>
        <mxCell id="U1XYEcbWwrDaBiq8j8Jq-80" value="" style="endArrow=classic;html=1;rounded=0;exitX=1;exitY=0.5;exitDx=0;exitDy=0;entryX=0.5;entryY=0;entryDx=0;entryDy=0;" parent="1" source="U1XYEcbWwrDaBiq8j8Jq-67" target="U1XYEcbWwrDaBiq8j8Jq-79" edge="1">
          <mxGeometry width="50" height="50" relative="1" as="geometry">
            <mxPoint x="1060" y="1470" as="sourcePoint" />
            <mxPoint x="1110" y="1420" as="targetPoint" />
            <Array as="points">
              <mxPoint x="950" y="1170" />
              <mxPoint x="950" y="1290" />
              <mxPoint x="950" y="1340" />
              <mxPoint x="680" y="1340" />
              <mxPoint x="680" y="1380" />
            </Array>
          </mxGeometry>
        </mxCell>
        <mxCell id="U1XYEcbWwrDaBiq8j8Jq-81" value="" style="endArrow=classic;html=1;rounded=0;exitX=1;exitY=0.5;exitDx=0;exitDy=0;entryX=0.5;entryY=0;entryDx=0;entryDy=0;" parent="1" source="U1XYEcbWwrDaBiq8j8Jq-68" target="U1XYEcbWwrDaBiq8j8Jq-79" edge="1">
          <mxGeometry width="50" height="50" relative="1" as="geometry">
            <mxPoint x="1060" y="1280" as="sourcePoint" />
            <mxPoint x="1110" y="1230" as="targetPoint" />
            <Array as="points">
              <mxPoint x="950" y="1270" />
              <mxPoint x="950" y="1290" />
              <mxPoint x="950" y="1340" />
              <mxPoint x="820" y="1340" />
              <mxPoint x="680" y="1340" />
              <mxPoint x="680" y="1380" />
            </Array>
          </mxGeometry>
        </mxCell>
        <mxCell id="U1XYEcbWwrDaBiq8j8Jq-82" value="Конец maschtab&lt;div&gt;&lt;br&gt;&lt;/div&gt;" style="ellipse;whiteSpace=wrap;html=1;" parent="1" vertex="1">
          <mxGeometry x="620" y="1470" width="120" height="80" as="geometry" />
        </mxCell>
      </root>
    </mxGraphModel>
  </diagram>
  <diagram id="3DxUTm8rp6klxQ3pzdtI" name="Страница — 2">
    <mxGraphModel dx="1290" dy="522" grid="1" gridSize="10" guides="1" tooltips="1" connect="1" arrows="1" fold="1" page="1" pageScale="1" pageWidth="1200" pageHeight="1600" math="0" shadow="0">
      <root>
        <mxCell id="0" />
        <mxCell id="1" parent="0" />
        <mxCell id="g4upZ3wpfeA_VY0nYFf6-3" value="" style="edgeStyle=orthogonalEdgeStyle;rounded=0;orthogonalLoop=1;jettySize=auto;html=1;" parent="1" source="g4upZ3wpfeA_VY0nYFf6-1" target="g4upZ3wpfeA_VY0nYFf6-2" edge="1">
          <mxGeometry relative="1" as="geometry" />
        </mxCell>
        <mxCell id="g4upZ3wpfeA_VY0nYFf6-1" value="Начало fractal" style="ellipse;whiteSpace=wrap;html=1;" parent="1" vertex="1">
          <mxGeometry x="80" y="40" width="120" height="80" as="geometry" />
        </mxCell>
        <mxCell id="XXOSiyogG26CdCvfBOHh-4" value="" style="edgeStyle=orthogonalEdgeStyle;rounded=0;orthogonalLoop=1;jettySize=auto;html=1;" parent="1" source="g4upZ3wpfeA_VY0nYFf6-2" target="XXOSiyogG26CdCvfBOHh-3" edge="1">
          <mxGeometry relative="1" as="geometry" />
        </mxCell>
        <mxCell id="g4upZ3wpfeA_VY0nYFf6-2" value="Инициализация&amp;nbsp;&lt;div&gt;x1,y1,x2,y2&lt;div&gt;&lt;br&gt;&lt;/div&gt;&lt;/div&gt;" style="shape=parallelogram;perimeter=parallelogramPerimeter;whiteSpace=wrap;html=1;fixedSize=1;" parent="1" vertex="1">
          <mxGeometry x="80" y="160" width="120" height="60" as="geometry" />
        </mxCell>
        <mxCell id="XXOSiyogG26CdCvfBOHh-1" value="" style="endArrow=none;html=1;rounded=0;exitX=1;exitY=0.5;exitDx=0;exitDy=0;entryX=0;entryY=0.5;entryDx=0;entryDy=0;entryPerimeter=0;" parent="1" source="g4upZ3wpfeA_VY0nYFf6-2" target="XXOSiyogG26CdCvfBOHh-2" edge="1">
          <mxGeometry width="50" height="50" relative="1" as="geometry">
            <mxPoint x="190" y="190" as="sourcePoint" />
            <mxPoint x="310" y="190" as="targetPoint" />
          </mxGeometry>
        </mxCell>
        <mxCell id="XXOSiyogG26CdCvfBOHh-2" value="По значению" style="strokeWidth=2;html=1;shape=mxgraph.flowchart.annotation_1;align=left;pointerEvents=1;" parent="1" vertex="1">
          <mxGeometry x="440" y="160" width="50" height="60" as="geometry" />
        </mxCell>
        <mxCell id="XXOSiyogG26CdCvfBOHh-8" style="edgeStyle=orthogonalEdgeStyle;rounded=0;orthogonalLoop=1;jettySize=auto;html=1;entryX=0.5;entryY=0;entryDx=0;entryDy=0;" parent="1" source="XXOSiyogG26CdCvfBOHh-3" target="XXOSiyogG26CdCvfBOHh-5" edge="1">
          <mxGeometry relative="1" as="geometry" />
        </mxCell>
        <mxCell id="XXOSiyogG26CdCvfBOHh-9" value="Да" style="edgeLabel;html=1;align=center;verticalAlign=middle;resizable=0;points=[];" parent="XXOSiyogG26CdCvfBOHh-8" vertex="1" connectable="0">
          <mxGeometry x="-0.3916" y="1" relative="1" as="geometry">
            <mxPoint as="offset" />
          </mxGeometry>
        </mxCell>
        <mxCell id="XXOSiyogG26CdCvfBOHh-14" value="" style="edgeStyle=orthogonalEdgeStyle;rounded=0;orthogonalLoop=1;jettySize=auto;html=1;" parent="1" source="XXOSiyogG26CdCvfBOHh-3" target="XXOSiyogG26CdCvfBOHh-10" edge="1">
          <mxGeometry relative="1" as="geometry" />
        </mxCell>
        <mxCell id="XXOSiyogG26CdCvfBOHh-18" value="Нет" style="edgeLabel;html=1;align=center;verticalAlign=middle;resizable=0;points=[];" parent="XXOSiyogG26CdCvfBOHh-14" vertex="1" connectable="0">
          <mxGeometry x="-0.2857" y="2" relative="1" as="geometry">
            <mxPoint as="offset" />
          </mxGeometry>
        </mxCell>
        <mxCell id="XXOSiyogG26CdCvfBOHh-3" value="depth=0" style="rhombus;whiteSpace=wrap;html=1;" parent="1" vertex="1">
          <mxGeometry x="80" y="240" width="120" height="80" as="geometry" />
        </mxCell>
        <mxCell id="XXOSiyogG26CdCvfBOHh-41" style="edgeStyle=orthogonalEdgeStyle;rounded=0;orthogonalLoop=1;jettySize=auto;html=1;entryX=0.5;entryY=0;entryDx=0;entryDy=0;" parent="1" source="XXOSiyogG26CdCvfBOHh-5" target="XXOSiyogG26CdCvfBOHh-28" edge="1">
          <mxGeometry relative="1" as="geometry">
            <mxPoint x="340" y="1401.5999755859375" as="targetPoint" />
            <Array as="points">
              <mxPoint x="340" y="1400" />
              <mxPoint x="140" y="1400" />
            </Array>
          </mxGeometry>
        </mxCell>
        <mxCell id="XXOSiyogG26CdCvfBOHh-5" value="line(round(x1),&lt;div&gt;round(y1),&lt;/div&gt;&lt;div&gt;round(x2),&lt;/div&gt;&lt;div&gt;round(y2))&lt;/div&gt;" style="shape=parallelogram;perimeter=parallelogramPerimeter;whiteSpace=wrap;html=1;fixedSize=1;" parent="1" vertex="1">
          <mxGeometry x="275" y="360" width="120" height="60" as="geometry" />
        </mxCell>
        <mxCell id="XXOSiyogG26CdCvfBOHh-15" value="" style="edgeStyle=orthogonalEdgeStyle;rounded=0;orthogonalLoop=1;jettySize=auto;html=1;" parent="1" source="XXOSiyogG26CdCvfBOHh-10" target="XXOSiyogG26CdCvfBOHh-11" edge="1">
          <mxGeometry relative="1" as="geometry" />
        </mxCell>
        <mxCell id="XXOSiyogG26CdCvfBOHh-10" value="&lt;div&gt;dx:=(x2-x1)/4;&lt;/div&gt;&lt;div&gt;&amp;nbsp; &amp;nbsp; dy:=(y2-y1)/4;&lt;/div&gt;&lt;div&gt;&amp;nbsp; &amp;nbsp; x3:=x1+dx;&lt;/div&gt;&lt;div&gt;&amp;nbsp; &amp;nbsp; y3:=y1+dy;&lt;/div&gt;" style="rounded=0;whiteSpace=wrap;html=1;" parent="1" vertex="1">
          <mxGeometry x="80" y="360" width="120" height="60" as="geometry" />
        </mxCell>
        <mxCell id="XXOSiyogG26CdCvfBOHh-16" value="" style="edgeStyle=orthogonalEdgeStyle;rounded=0;orthogonalLoop=1;jettySize=auto;html=1;" parent="1" source="XXOSiyogG26CdCvfBOHh-11" target="XXOSiyogG26CdCvfBOHh-12" edge="1">
          <mxGeometry relative="1" as="geometry" />
        </mxCell>
        <mxCell id="XXOSiyogG26CdCvfBOHh-11" value="x4:=x3+dy;&#xa;    y4:=y3-dx;&#xa;    x5:=x4+dx;&#xa;    y5:=y4+dy;" style="rounded=0;whiteSpace=wrap;html=1;" parent="1" vertex="1">
          <mxGeometry x="80" y="460" width="120" height="60" as="geometry" />
        </mxCell>
        <mxCell id="XXOSiyogG26CdCvfBOHh-17" value="" style="edgeStyle=orthogonalEdgeStyle;rounded=0;orthogonalLoop=1;jettySize=auto;html=1;" parent="1" source="XXOSiyogG26CdCvfBOHh-12" target="XXOSiyogG26CdCvfBOHh-13" edge="1">
          <mxGeometry relative="1" as="geometry" />
        </mxCell>
        <mxCell id="XXOSiyogG26CdCvfBOHh-12" value="&lt;div&gt;x6:=x5-dy;&lt;/div&gt;&lt;div&gt;&amp;nbsp; &amp;nbsp; y6:=y5+dx;&lt;/div&gt;&lt;div&gt;&amp;nbsp; &amp;nbsp; x7:=x6-dy;&lt;/div&gt;&lt;div&gt;&amp;nbsp; &amp;nbsp; y7:=y6+dx;&lt;/div&gt;" style="rounded=0;whiteSpace=wrap;html=1;" parent="1" vertex="1">
          <mxGeometry x="80" y="560" width="120" height="60" as="geometry" />
        </mxCell>
        <mxCell id="XXOSiyogG26CdCvfBOHh-37" style="edgeStyle=orthogonalEdgeStyle;rounded=0;orthogonalLoop=1;jettySize=auto;html=1;entryX=0.5;entryY=0;entryDx=0;entryDy=0;" parent="1" source="XXOSiyogG26CdCvfBOHh-13" target="XXOSiyogG26CdCvfBOHh-19" edge="1">
          <mxGeometry relative="1" as="geometry" />
        </mxCell>
        <mxCell id="XXOSiyogG26CdCvfBOHh-13" value="x8:=x7+dx;&#xa;    y8:=y7+dy;&#xa;    x9:=x8+dy;&#xa;    y9:=y8-dx;" style="rounded=0;whiteSpace=wrap;html=1;" parent="1" vertex="1">
          <mxGeometry x="80" y="660" width="120" height="60" as="geometry" />
        </mxCell>
        <mxCell id="XXOSiyogG26CdCvfBOHh-38" style="edgeStyle=orthogonalEdgeStyle;rounded=0;orthogonalLoop=1;jettySize=auto;html=1;" parent="1" source="XXOSiyogG26CdCvfBOHh-19" target="XXOSiyogG26CdCvfBOHh-21" edge="1">
          <mxGeometry relative="1" as="geometry" />
        </mxCell>
        <mxCell id="XXOSiyogG26CdCvfBOHh-19" value="fractal(x1,y1,x3,&lt;div&gt;y3,depth-1)&lt;/div&gt;" style="shape=process;whiteSpace=wrap;html=1;backgroundOutline=1;" parent="1" vertex="1">
          <mxGeometry x="80" y="750" width="120" height="50" as="geometry" />
        </mxCell>
        <mxCell id="XXOSiyogG26CdCvfBOHh-39" style="edgeStyle=orthogonalEdgeStyle;rounded=0;orthogonalLoop=1;jettySize=auto;html=1;" parent="1" source="XXOSiyogG26CdCvfBOHh-21" target="XXOSiyogG26CdCvfBOHh-22" edge="1">
          <mxGeometry relative="1" as="geometry" />
        </mxCell>
        <mxCell id="XXOSiyogG26CdCvfBOHh-21" value="fractal(x3,y3,x4,&lt;div&gt;y4,depth-1)&lt;/div&gt;" style="shape=process;whiteSpace=wrap;html=1;backgroundOutline=1;" parent="1" vertex="1">
          <mxGeometry x="80" y="830" width="120" height="50" as="geometry" />
        </mxCell>
        <mxCell id="XXOSiyogG26CdCvfBOHh-40" style="edgeStyle=orthogonalEdgeStyle;rounded=0;orthogonalLoop=1;jettySize=auto;html=1;entryX=0.5;entryY=0;entryDx=0;entryDy=0;" parent="1" source="XXOSiyogG26CdCvfBOHh-22" target="XXOSiyogG26CdCvfBOHh-23" edge="1">
          <mxGeometry relative="1" as="geometry" />
        </mxCell>
        <mxCell id="XXOSiyogG26CdCvfBOHh-22" value="fractal(x4,y4,x5,&lt;div&gt;y5,depth-1)&lt;/div&gt;" style="shape=process;whiteSpace=wrap;html=1;backgroundOutline=1;" parent="1" vertex="1">
          <mxGeometry x="80" y="920" width="120" height="50" as="geometry" />
        </mxCell>
        <mxCell id="XXOSiyogG26CdCvfBOHh-34" style="edgeStyle=orthogonalEdgeStyle;rounded=0;orthogonalLoop=1;jettySize=auto;html=1;entryX=0.5;entryY=0;entryDx=0;entryDy=0;" parent="1" source="XXOSiyogG26CdCvfBOHh-23" target="XXOSiyogG26CdCvfBOHh-24" edge="1">
          <mxGeometry relative="1" as="geometry" />
        </mxCell>
        <mxCell id="XXOSiyogG26CdCvfBOHh-23" value="fractal(x5,y5,x6,&lt;div&gt;y6,depth-1)&lt;/div&gt;" style="shape=process;whiteSpace=wrap;html=1;backgroundOutline=1;" parent="1" vertex="1">
          <mxGeometry x="80" y="990" width="120" height="50" as="geometry" />
        </mxCell>
        <mxCell id="XXOSiyogG26CdCvfBOHh-36" style="edgeStyle=orthogonalEdgeStyle;rounded=0;orthogonalLoop=1;jettySize=auto;html=1;entryX=0.5;entryY=0;entryDx=0;entryDy=0;" parent="1" source="XXOSiyogG26CdCvfBOHh-24" target="XXOSiyogG26CdCvfBOHh-25" edge="1">
          <mxGeometry relative="1" as="geometry" />
        </mxCell>
        <mxCell id="XXOSiyogG26CdCvfBOHh-24" value="fractal(x6,y6,x7,&lt;div&gt;y7,depth-1)&lt;/div&gt;" style="shape=process;whiteSpace=wrap;html=1;backgroundOutline=1;" parent="1" vertex="1">
          <mxGeometry x="80" y="1070" width="120" height="50" as="geometry" />
        </mxCell>
        <mxCell id="XXOSiyogG26CdCvfBOHh-35" style="edgeStyle=orthogonalEdgeStyle;rounded=0;orthogonalLoop=1;jettySize=auto;html=1;" parent="1" source="XXOSiyogG26CdCvfBOHh-25" target="XXOSiyogG26CdCvfBOHh-26" edge="1">
          <mxGeometry relative="1" as="geometry" />
        </mxCell>
        <mxCell id="XXOSiyogG26CdCvfBOHh-25" value="fractal(x7,y7,x8,&lt;div&gt;y8,depth-1)&lt;/div&gt;" style="shape=process;whiteSpace=wrap;html=1;backgroundOutline=1;" parent="1" vertex="1">
          <mxGeometry x="80" y="1160" width="120" height="50" as="geometry" />
        </mxCell>
        <mxCell id="XXOSiyogG26CdCvfBOHh-30" value="" style="edgeStyle=orthogonalEdgeStyle;rounded=0;orthogonalLoop=1;jettySize=auto;html=1;" parent="1" source="XXOSiyogG26CdCvfBOHh-26" target="XXOSiyogG26CdCvfBOHh-27" edge="1">
          <mxGeometry relative="1" as="geometry" />
        </mxCell>
        <mxCell id="XXOSiyogG26CdCvfBOHh-26" value="fractal(x8,y8,x9,&lt;div&gt;y9,depth-1)&lt;/div&gt;" style="shape=process;whiteSpace=wrap;html=1;backgroundOutline=1;" parent="1" vertex="1">
          <mxGeometry x="80" y="1240" width="120" height="50" as="geometry" />
        </mxCell>
        <mxCell id="XXOSiyogG26CdCvfBOHh-29" value="" style="edgeStyle=orthogonalEdgeStyle;rounded=0;orthogonalLoop=1;jettySize=auto;html=1;" parent="1" source="XXOSiyogG26CdCvfBOHh-27" target="XXOSiyogG26CdCvfBOHh-28" edge="1">
          <mxGeometry relative="1" as="geometry" />
        </mxCell>
        <mxCell id="XXOSiyogG26CdCvfBOHh-27" value="fractal(x9,y9,x2,&lt;div&gt;y2,depth-1)&lt;/div&gt;" style="shape=process;whiteSpace=wrap;html=1;backgroundOutline=1;" parent="1" vertex="1">
          <mxGeometry x="80" y="1320" width="120" height="50" as="geometry" />
        </mxCell>
        <mxCell id="XXOSiyogG26CdCvfBOHh-28" value="Конец fractal" style="ellipse;whiteSpace=wrap;html=1;" parent="1" vertex="1">
          <mxGeometry x="80" y="1420" width="120" height="80" as="geometry" />
        </mxCell>
      </root>
    </mxGraphModel>
  </diagram>
  <diagram id="u00QsIqr4cUo26fwv0He" name="Страница — 3">
    <mxGraphModel dx="1290" dy="522" grid="1" gridSize="10" guides="1" tooltips="1" connect="1" arrows="1" fold="1" page="1" pageScale="1" pageWidth="1200" pageHeight="1600" math="0" shadow="0">
      <root>
        <mxCell id="0" />
        <mxCell id="1" parent="0" />
        <mxCell id="OE-kxaRUHvWXzfRUjNcR-5" style="edgeStyle=orthogonalEdgeStyle;rounded=0;orthogonalLoop=1;jettySize=auto;html=1;" edge="1" parent="1" source="OE-kxaRUHvWXzfRUjNcR-1" target="OE-kxaRUHvWXzfRUjNcR-2">
          <mxGeometry relative="1" as="geometry" />
        </mxCell>
        <mxCell id="OE-kxaRUHvWXzfRUjNcR-1" value="Начало" style="ellipse;whiteSpace=wrap;html=1;" vertex="1" parent="1">
          <mxGeometry x="80" y="40" width="120" height="80" as="geometry" />
        </mxCell>
        <mxCell id="OE-kxaRUHvWXzfRUjNcR-6" style="edgeStyle=orthogonalEdgeStyle;rounded=0;orthogonalLoop=1;jettySize=auto;html=1;entryX=0.5;entryY=0;entryDx=0;entryDy=0;" edge="1" parent="1" source="OE-kxaRUHvWXzfRUjNcR-2" target="OE-kxaRUHvWXzfRUjNcR-3">
          <mxGeometry relative="1" as="geometry" />
        </mxCell>
        <mxCell id="OE-kxaRUHvWXzfRUjNcR-2" value="&lt;div&gt;LockDrawing;&lt;/div&gt;&lt;div&gt;&amp;nbsp; setwindowsize&lt;/div&gt;&lt;div&gt;(600,800)&lt;/div&gt;" style="shape=parallelogram;perimeter=parallelogramPerimeter;whiteSpace=wrap;html=1;fixedSize=1;" vertex="1" parent="1">
          <mxGeometry x="80" y="150" width="120" height="60" as="geometry" />
        </mxCell>
        <mxCell id="OE-kxaRUHvWXzfRUjNcR-7" style="edgeStyle=orthogonalEdgeStyle;rounded=0;orthogonalLoop=1;jettySize=auto;html=1;entryX=0.5;entryY=0;entryDx=0;entryDy=0;" edge="1" parent="1" source="OE-kxaRUHvWXzfRUjNcR-3" target="OE-kxaRUHvWXzfRUjNcR-4">
          <mxGeometry relative="1" as="geometry" />
        </mxCell>
        <mxCell id="OE-kxaRUHvWXzfRUjNcR-3" value="&lt;div&gt;&amp;nbsp;xa:=100;&lt;/div&gt;&lt;div&gt;&amp;nbsp; ya:=400&lt;/div&gt;" style="rounded=0;whiteSpace=wrap;html=1;" vertex="1" parent="1">
          <mxGeometry x="80" y="240" width="120" height="60" as="geometry" />
        </mxCell>
        <mxCell id="OE-kxaRUHvWXzfRUjNcR-18" value="" style="edgeStyle=orthogonalEdgeStyle;rounded=0;orthogonalLoop=1;jettySize=auto;html=1;" edge="1" parent="1" source="OE-kxaRUHvWXzfRUjNcR-4" target="OE-kxaRUHvWXzfRUjNcR-16">
          <mxGeometry relative="1" as="geometry" />
        </mxCell>
        <mxCell id="OE-kxaRUHvWXzfRUjNcR-4" value="&lt;div&gt;xb:=500;&lt;/div&gt;&lt;div&gt;&amp;nbsp; yb:=400;&lt;/div&gt;&lt;div&gt;&amp;nbsp; depth:=2;&lt;/div&gt;" style="rounded=0;whiteSpace=wrap;html=1;" vertex="1" parent="1">
          <mxGeometry x="80" y="340" width="120" height="60" as="geometry" />
        </mxCell>
        <mxCell id="OE-kxaRUHvWXzfRUjNcR-20" value="" style="edgeStyle=orthogonalEdgeStyle;rounded=0;orthogonalLoop=1;jettySize=auto;html=1;" edge="1" parent="1" source="OE-kxaRUHvWXzfRUjNcR-8" target="OE-kxaRUHvWXzfRUjNcR-10">
          <mxGeometry relative="1" as="geometry" />
        </mxCell>
        <mxCell id="OE-kxaRUHvWXzfRUjNcR-8" value="Window.Clear;" style="shape=parallelogram;perimeter=parallelogramPerimeter;whiteSpace=wrap;html=1;fixedSize=1;" vertex="1" parent="1">
          <mxGeometry x="80" y="540" width="120" height="60" as="geometry" />
        </mxCell>
        <mxCell id="OE-kxaRUHvWXzfRUjNcR-22" value="" style="edgeStyle=orthogonalEdgeStyle;rounded=0;orthogonalLoop=1;jettySize=auto;html=1;" edge="1" parent="1" source="OE-kxaRUHvWXzfRUjNcR-10" target="OE-kxaRUHvWXzfRUjNcR-11">
          <mxGeometry relative="1" as="geometry" />
        </mxCell>
        <mxCell id="OE-kxaRUHvWXzfRUjNcR-10" value="fractal(xa,ya,xb,&lt;div&gt;yb,depth)&lt;/div&gt;" style="shape=process;whiteSpace=wrap;html=1;backgroundOutline=1;" vertex="1" parent="1">
          <mxGeometry x="80" y="640" width="120" height="60" as="geometry" />
        </mxCell>
        <mxCell id="OE-kxaRUHvWXzfRUjNcR-23" value="" style="edgeStyle=orthogonalEdgeStyle;rounded=0;orthogonalLoop=1;jettySize=auto;html=1;" edge="1" parent="1" source="OE-kxaRUHvWXzfRUjNcR-11" target="OE-kxaRUHvWXzfRUjNcR-12">
          <mxGeometry relative="1" as="geometry" />
        </mxCell>
        <mxCell id="OE-kxaRUHvWXzfRUjNcR-11" value="onKeyDown :=dvizh" style="shape=process;whiteSpace=wrap;html=1;backgroundOutline=1;" vertex="1" parent="1">
          <mxGeometry x="80" y="740" width="120" height="60" as="geometry" />
        </mxCell>
        <mxCell id="OE-kxaRUHvWXzfRUjNcR-24" value="" style="edgeStyle=orthogonalEdgeStyle;rounded=0;orthogonalLoop=1;jettySize=auto;html=1;" edge="1" parent="1" source="OE-kxaRUHvWXzfRUjNcR-12" target="OE-kxaRUHvWXzfRUjNcR-13">
          <mxGeometry relative="1" as="geometry" />
        </mxCell>
        <mxCell id="OE-kxaRUHvWXzfRUjNcR-12" value="onKeyUp := glub" style="shape=process;whiteSpace=wrap;html=1;backgroundOutline=1;" vertex="1" parent="1">
          <mxGeometry x="80" y="840" width="120" height="60" as="geometry" />
        </mxCell>
        <mxCell id="OE-kxaRUHvWXzfRUjNcR-25" value="" style="edgeStyle=orthogonalEdgeStyle;rounded=0;orthogonalLoop=1;jettySize=auto;html=1;" edge="1" parent="1" source="OE-kxaRUHvWXzfRUjNcR-13" target="OE-kxaRUHvWXzfRUjNcR-14">
          <mxGeometry relative="1" as="geometry" />
        </mxCell>
        <mxCell id="OE-kxaRUHvWXzfRUjNcR-13" value="&amp;nbsp;onKeyPress:=&lt;div&gt;maschtab&lt;/div&gt;" style="shape=process;whiteSpace=wrap;html=1;backgroundOutline=1;" vertex="1" parent="1">
          <mxGeometry x="80" y="940" width="120" height="60" as="geometry" />
        </mxCell>
        <mxCell id="OE-kxaRUHvWXzfRUjNcR-26" value="" style="edgeStyle=orthogonalEdgeStyle;rounded=0;orthogonalLoop=1;jettySize=auto;html=1;" edge="1" parent="1" source="OE-kxaRUHvWXzfRUjNcR-14" target="OE-kxaRUHvWXzfRUjNcR-15">
          <mxGeometry relative="1" as="geometry" />
        </mxCell>
        <mxCell id="OE-kxaRUHvWXzfRUjNcR-14" value="redraw" style="shape=parallelogram;perimeter=parallelogramPerimeter;whiteSpace=wrap;html=1;fixedSize=1;" vertex="1" parent="1">
          <mxGeometry x="80" y="1040" width="120" height="60" as="geometry" />
        </mxCell>
        <mxCell id="OE-kxaRUHvWXzfRUjNcR-27" value="" style="edgeStyle=orthogonalEdgeStyle;rounded=0;orthogonalLoop=1;jettySize=auto;html=1;" edge="1" parent="1" source="OE-kxaRUHvWXzfRUjNcR-15" target="OE-kxaRUHvWXzfRUjNcR-17">
          <mxGeometry relative="1" as="geometry" />
        </mxCell>
        <mxCell id="OE-kxaRUHvWXzfRUjNcR-15" value="sleep(1)" style="shape=parallelogram;perimeter=parallelogramPerimeter;whiteSpace=wrap;html=1;fixedSize=1;" vertex="1" parent="1">
          <mxGeometry x="80" y="1140" width="120" height="60" as="geometry" />
        </mxCell>
        <mxCell id="OE-kxaRUHvWXzfRUjNcR-19" value="" style="edgeStyle=orthogonalEdgeStyle;rounded=0;orthogonalLoop=1;jettySize=auto;html=1;" edge="1" parent="1" source="OE-kxaRUHvWXzfRUjNcR-16" target="OE-kxaRUHvWXzfRUjNcR-8">
          <mxGeometry relative="1" as="geometry" />
        </mxCell>
        <mxCell id="OE-kxaRUHvWXzfRUjNcR-16" value="Цикл 1" style="strokeWidth=2;html=1;shape=mxgraph.flowchart.loop_limit;whiteSpace=wrap;" vertex="1" parent="1">
          <mxGeometry x="80" y="440" width="120" height="60" as="geometry" />
        </mxCell>
        <mxCell id="OE-kxaRUHvWXzfRUjNcR-29" value="" style="edgeStyle=orthogonalEdgeStyle;rounded=0;orthogonalLoop=1;jettySize=auto;html=1;" edge="1" parent="1" source="OE-kxaRUHvWXzfRUjNcR-17" target="OE-kxaRUHvWXzfRUjNcR-28">
          <mxGeometry relative="1" as="geometry" />
        </mxCell>
        <mxCell id="OE-kxaRUHvWXzfRUjNcR-17" value="Цикл 1" style="strokeWidth=2;html=1;shape=mxgraph.flowchart.loop_limit;whiteSpace=wrap;direction=west;" vertex="1" parent="1">
          <mxGeometry x="80" y="1240" width="120" height="60" as="geometry" />
        </mxCell>
        <mxCell id="OE-kxaRUHvWXzfRUjNcR-28" value="Конец" style="ellipse;whiteSpace=wrap;html=1;" vertex="1" parent="1">
          <mxGeometry x="80" y="1340" width="120" height="80" as="geometry" />
        </mxCell>
      </root>
    </mxGraphModel>
  </diagram>
</mxfile>
